<svg xmlns="http://www.w3.org/2000/svg" version="1.1" xmlns:xlink="http://www.w3.org/1999/xlink" xmlns:svgjs="http://svgjs.com/svgjs" width="1440" height="560" preserveAspectRatio="none" viewBox="0 0 1440 560">
    <g mask="url(&quot;#SvgjsMask1004&quot;)" fill="none">
        <rect width="1440" height="560" x="0" y="0" fill="rgba(52, 102, 255, 1)"></rect>
        <path d="M0,553.867C116.795,578.092,242.74,596.535,350.494,545.379C463.246,491.85,547.189,387.005,594.639,271.563C641.168,158.361,627.256,33.46,610.753,-87.813C594.139,-209.907,578.263,-338.041,498.863,-432.267C419.015,-527.025,299.387,-583.568,176.947,-602.626C62.393,-620.456,-43.092,-556.456,-156.895,-534.337C-285.539,-509.334,-448.616,-562.12,-535.633,-464.128C-622.47,-366.339,-546.648,-210.609,-559.902,-80.502C-572.431,42.485,-673.904,172.564,-611.358,279.198C-547.675,387.772,-382.861,365.502,-268.045,417.086C-174.654,459.044,-100.249,533.074,0,553.867" fill="#003df6"></path>
        <path d="M1440 1235.2179999999998C1564.05 1229.03 1656.601 1122.0030000000002 1745.306 1035.066 1820.176 961.688 1864.622 869.144 1909.961 774.624 1956.1979999999999 678.233 2032.529 582.709 2012.681 477.661 1992.923 373.08799999999997 1875.246 323.551 1808.997 240.26299999999998 1738.857 152.084 1709.32 30.894999999999982 1612.063-25.993000000000052 1504.291-89.03099999999995 1365.153-135.197 1250.133-86.62900000000002 1135.253-38.120000000000005 1114.789 113.83100000000002 1041.679 214.853 976.6320000000001 304.733 877.741 368.587 844.161 474.331 807.401 590.088 795.486 720.819 845.918 831.308 896.353 941.803 1014.025 998.245 1114.469 1066.536 1217.624 1136.67 1315.416 1241.433 1440 1235.2179999999998" fill="#7194ff"></path>
    </g>
    <defs>
        <mask id="SvgjsMask1004">
            <rect width="1440" height="560" fill="#ffffff"></rect>
        </mask>
    </defs>
</svg>